<?xml version="1.0" encoding="UTF-8" standalone="no"?>
<!-- Created with Inkscape (http://www.inkscape.org/) -->

<svg
   width="48"
   height="55.999996"
   viewBox="0 0 48 55.999996"
   version="1.1"
   id="svg1"
   xmlns:xlink="http://www.w3.org/1999/xlink"
   xmlns="http://www.w3.org/2000/svg"
   xmlns:svg="http://www.w3.org/2000/svg">
  <defs
     id="defs1">
    <linearGradient
       id="linearGradient24">
      <stop
         style="stop-color:#f82866;stop-opacity:1;"
         offset="0"
         id="stop24" />
      <stop
         style="stop-color:#f34995;stop-opacity:0;"
         offset="1"
         id="stop25" />
    </linearGradient>
    <linearGradient
       xlink:href="#linearGradient24"
       id="linearGradient25"
       x1="30.342951"
       y1="12.551981"
       x2="37.511681"
       y2="19.720711"
       gradientUnits="userSpaceOnUse"
       gradientTransform="matrix(1,0,0,0.98246554,0.36063429,2.6160412)" />
    <linearGradient
       xlink:href="#linearGradient24"
       id="linearGradient27"
       x1="29.963783"
       y1="8.1116047"
       x2="33.563"
       y2="23.701532"
       gradientUnits="userSpaceOnUse"
       gradientTransform="matrix(1,0,0,0.98246554,0.23661221,2.3723464)" />
    <linearGradient
       xlink:href="#linearGradient24"
       id="linearGradient29"
       x1="24.844084"
       y1="14.781628"
       x2="37.455631"
       y2="14.781628"
       gradientUnits="userSpaceOnUse"
       gradientTransform="matrix(1,0,0,0.98246554,0.23661221,2.3723464)" />
  </defs>
  <g
     id="layer1"
     transform="translate(-8,-4.0000019)">
    <path
       d="M 51.171875,27.972656 A 24,10 0 0 1 32,32 24,10 0 0 1 12.876953,28 24,20 0 0 0 8,40 24,20 0 0 0 32,60 24,20 0 0 0 56,40 24,20 0 0 0 51.171875,27.972656 Z"
       style="fill:#efece6;fill-opacity:1;stroke-width:10;stroke-linecap:round"
       id="path2" />
    <path
       d="M 56,27.76861 A 28.567056,22.95964 0 0 0 54.800407,26.3 28.567056,11.47982 0 0 1 31.98024,30.923319 28.567056,11.47982 0 0 1 9.2181903,26.331391 28.567056,22.95964 0 0 0 8,27.811211 28.567056,22.95964 0 0 0 31.98024,38.3 28.567056,22.95964 0 0 0 56,27.76861 Z"
       style="fill:#efece6;fill-opacity:1;stroke-width:10;stroke-linecap:round"
       id="path5" />
    <path
       style="fill:url(#linearGradient27);stroke-width:9.99996;stroke-linecap:round"
       d="m 38.567391,30.640946 c 6.01559,-16.205706 -9.212158,-12.175 -3.661664,-25.466109 2.76267,-6.6154392 -17.915999,16.571249 -8.369518,23.151009 9.546481,6.579761 12.031182,2.3151 12.031182,2.3151 z"
       id="path8" />
    <path
       style="fill:url(#linearGradient29);stroke-width:9.99996;stroke-linecap:round"
       d="m 37.692222,24.140987 c 0.01723,-11.640053 -9.507756,-5.85789 -9.065963,-15.5341625 0.219897,-4.8162115 -8.174632,14.3761245 0.13082,16.5815145 8.305452,2.205392 8.935143,-1.047352 8.935143,-1.047352 z"
       id="path9" />
    <path
       style="fill:url(#linearGradient25);stroke-width:9.99996;stroke-linecap:round"
       d="m 37.245034,27.769956 c 6.223454,-9.234164 -3.838299,-10.718828 1.6483,-18.1223694 2.730869,-3.6849959 -13.658207,6.2026804 -8.751651,13.2533984 4.906557,7.050719 7.103351,4.868971 7.103351,4.868971 z"
       id="path10" />
  </g>
</svg>
